HIERARCHY
ROOT Hips
{
  OFFSET 0 0 0
  CHANNELS 6 Xposition Yposition Zposition Zrotation Yrotation Xrotation
  JOINT LeftThigh
  {
    OFFSET 8.409438 0 -5.917753
    CHANNELS 3 Zrotation Yrotation Xrotation
    JOINT LeftLeg
    {
      OFFSET 0 0 -42.358652
      CHANNELS 3 Zrotation Yrotation Xrotation
      JOINT LeftFoot
      {
        OFFSET 0 0 -39.357303
        CHANNELS 3 Zrotation Yrotation Xrotation
      }
    }
  }
  JOINT RightThigh
  {
    OFFSET -8.409438 0 -5.917753
    CHANNELS 3 Zrotation Yrotation Xrotation
    JOINT RightLeg
    {
      OFFSET 0 0 -42.358652
      CHANNELS 3 Zrotation Yrotation Xrotation
      JOINT RightFoot
      {
        OFFSET 0 0 -39.357303
        CHANNELS 3 Zrotation Yrotation Xrotation
      }
    }
  }
  JOINT SpineLow
  {
    OFFSET 0 0 4.719101
    CHANNELS 3 Zrotation Yrotation Xrotation
    JOINT SpineMid
    {
      OFFSET 0 0 12.899191
      CHANNELS 3 Zrotation Yrotation Xrotation
      JOINT Chest
      {
        OFFSET 0 0 12.899191
        CHANNELS 3 Zrotation Yrotation Xrotation
        JOINT LeftShoulder
        {
          OFFSET 7.550562 1.41573 9.438202
          CHANNELS 3 Zrotation Yrotation Xrotation
          JOINT LeftArm
          {
            OFFSET 9.155056 0 4.247191
            CHANNELS 3 Zrotation Yrotation Xrotation
            JOINT LeftForearm
            {
              OFFSET 0 0 25.771955
              CHANNELS 3 Zrotation Yrotation Xrotation
              JOINT LeftHand
              {
                OFFSET 0 0 25.197169
                CHANNELS 3 Zrotation Yrotation Xrotation
              }
            }
          }
        }
        JOINT RightShoulder
        {
          OFFSET -7.550562 1.41573 9.438202
          CHANNELS 3 Zrotation Yrotation Xrotation
          JOINT RightArm
          {
            OFFSET -9.155056 0 4.247191
            CHANNELS 3 Zrotation Yrotation Xrotation
            JOINT RightForearm
            {
              OFFSET 0 0 -25.771955
              CHANNELS 3 Zrotation Yrotation Xrotation
              JOINT RightHand
              {
                OFFSET 0 0 -25.197169
                CHANNELS 3 Zrotation Yrotation Xrotation
              }
            }
          }
        }
        JOINT Neck
        {
          OFFSET 0 0 15.101124
          CHANNELS 3 Zrotation Yrotation Xrotation
          JOINT Head
          {
            OFFSET 0 0 11.325843
            CHANNELS 3 Zrotation Yrotation Xrotation
            End Site
            {
              OFFSET 0 0 14.157303
            }
          }
        }
      }
    }
  }
}
MOTION
Frames: 17
Frame Time: 0.0
0.0  101.685394  0.0  6.738101  42.092345  -91.483191  -8.920937  -11.594675  -4.269744  -22.00879  12.342705  21.41798  -0.126953  2.797707  1.641061  -38.414399  20.450842  -8.807379  -23.020236  11.250094  18.018785  14.516301  6.849053  -3.116166  -1.436146  0.142154  1.589657  -3.914333  0.482559  4.335037  -3.914333  0.482559  4.335037  15.231999  19.269979  16.140895  161.650472  25.325222  -175.376545  -23.598004  -26.990712  124.597976  72.169333  -8.354586  -2.61143  27.121069  -8.052391  25.719576  88.541161  70.10657  19.470769  -80.08131  70.490943  -88.042085  79.363345  9.992811  35.258881  -8.444601  1.745503  -3.986011  -6.321897  1.364582  -2.965823  
0.0  101.685394  0.0  6.766393  43.21739  -91.229079  -10.612361  -11.778149  -5.130555  -21.152764  12.752669  22.292067  -0.160634  2.825548  1.558836  -38.329765  20.36298  -8.850023  -23.554217  11.568239  18.499249  14.158163  7.002063  -3.219843  -1.460673  0.155745  1.596374  -3.980402  0.521682  4.352377  -3.980402  0.521682  4.352377  14.987815  19.668357  15.874952  161.108779  26.339329  -174.923611  -23.409977  -27.654175  124.218099  72.212717  -8.574103  -3.003476  27.207838  -8.094335  25.512237  86.084622  70.270027  16.947542  -80.33181  70.238128  -88.705602  79.314014  10.124449  35.011809  -8.791776  1.614776  -4.033716  -6.583079  1.269488  -3.002588  
0.0  101.685394  0.0  6.740681  44.250974  -91.007869  -12.026277  -12.148716  -5.921295  -20.270461  13.200023  23.134958  -0.269061  2.850066  1.493728  -38.200469  20.270828  -8.880414  -24.093432  11.882875  19.030784  13.724789  7.103883  -3.364068  -1.487257  0.163526  1.616617  -4.052337  0.545917  4.406977  -4.052337  0.545917  4.406978  14.733817  20.066228  15.437877  160.561354  27.721442  -174.234827  -22.920771  -27.881289  123.408203  72.239607  -8.742236  -3.636745  27.499611  -8.18639  25.306867  83.420138  70.463489  14.385879  -80.542381  69.89153  -89.389862  79.278098  10.292487  34.764647  -9.219598  1.522593  -4.141047  -6.904353  1.204809  -3.083459  
0.0  101.685394  0.0  6.530794  44.899252  -91.003095  -12.960299  -12.647417  -6.529911  -19.531749  13.637518  23.905392  -0.400604  2.863533  1.381678  -37.836296  20.036249  -8.921699  -24.54886  12.264954  19.6253  13.499349  7.31358  -3.471968  -1.464178  0.152703  1.654009  -3.989665  0.517076  4.510004  -3.989666  0.517076  4.510004  14.434997  20.539126  15.021511  159.815879  28.772555  -173.721585  -22.659826  -28.327141  122.914366  72.278868  -8.846123  -4.487242  27.588419  -8.211573  25.072728  81.159687  70.543801  12.009951  -80.80384  69.55075  -90.108014  79.265648  10.461969  34.567846  -9.547739  1.365539  -4.25252  -7.151377  1.090974  -3.168818  
0.0  101.685394  0.0  7.038951  46.415098  -90.195317  -14.390206  -12.714001  -7.458741  -19.258488  14.073843  24.439694  -0.334391  2.973982  1.335014  -38.757413  20.016024  -9.674457  -24.775644  12.657497  20.315396  13.145986  7.454055  -3.593579  -1.588682  0.203505  1.635453  -4.326593  0.66306  4.4549  -4.326593  0.66306  4.4549  14.218114  20.957301  14.678802  158.915184  29.82725  -173.129836  -22.3324  -28.705908  122.318279  72.374259  -8.918992  -5.436127  28.473414  -8.581013  25.229886  77.848839  70.867323  9.991711  -81.703114  68.658368  -91.435379  79.296774  10.595253  34.48973  -10.107123  1.287481  -4.385187  -7.571251  1.038541  -3.268515  
0.0  101.685394  0.0  6.710325  46.540406  -90.328992  -14.32047  -13.200249  -7.842883  -19.084403  14.433216  25.029552  -0.254896  3.014502  1.222162  -38.382401  19.714261  -9.917359  -24.947824  13.031067  21.046  13.151821  7.725461  -3.666926  -1.539379  0.171139  1.663152  -4.19378  0.573116  4.533155  -4.19378  0.573116  4.533156  14.140989  21.494628  14.44274  158.171477  30.92427  -172.46211  -21.938057  -29.069777  121.668135  72.580129  -8.964126  -6.386826  28.646  -8.591069  25.200699  76.092703  70.841786  8.004487  -82.208156  68.414716  -92.286722  79.325573  10.729239  34.448248  -10.345801  1.181362  -4.474332  -7.750924  0.962163  -3.336762  
0.0  101.685394  0.0  6.32109  46.356262  -90.413273  -13.760752  -13.728897  -8.310465  -19.060213  14.789686  25.582818  0.027516  3.091355  1.210047  -38.088134  19.265895  -10.394239  -24.742665  13.419416  21.884105  13.095553  7.954398  -3.765849  -1.506516  0.148811  1.677348  -4.10539  0.510774  4.573632  -4.10539  0.510774  4.573632  14.387293  22.003706  14.215746  157.481537  32.035322  -171.76474  -21.507627  -29.565554  120.984948  72.87738  -8.999391  -7.308659  29.093561  -8.67118  25.136179  74.707494  70.716676  6.285765  -82.779997  68.178366  -93.159868  79.370064  10.896485  34.401988  -10.480163  1.086173  -4.58073  -7.852273  0.893564  -3.418007  
0.0  101.685394  0.0  5.852942  45.842505  -90.576179  -12.775912  -14.208401  -8.682868  -18.97308  14.971199  26.224478  0.086783  3.147339  1.103084  -37.883284  18.670273  -11.018204  -24.200914  13.820303  22.759192  13.280248  8.26545  -3.819092  -1.43106  0.106989  1.699988  -3.90196  0.39269  4.638598  -3.90196  0.39269  4.638598  14.472084  22.683012  14.023827  156.937678  33.161521  -171.05535  -21.126291  -30.255112  120.307057  73.181628  -9.094072  -8.183751  29.336779  -8.636298  25.059295  73.90891  70.441391  4.923734  -83.656247  67.994903  -94.195444  79.412767  11.1107  34.324589  -10.511598  1.007419  -4.688972  -7.876321  0.836578  -3.500538  
0.0  101.685394  0.0  5.25367  45.102315  -90.872891  -12.407709  -14.426976  -9.636745  -18.134527  15.005887  27.676189  0.191746  3.22967  1.036577  -37.80981  17.914821  -11.730519  -23.279413  14.211398  23.6845  13.450837  8.600466  -3.80848  -1.361682  0.055228  1.727267  -3.715911  0.24801  4.716502  -3.715911  0.24801  4.716502  14.551472  23.422036  13.777744  156.619028  34.256168  -170.384131  -20.733758  -31.010301  119.644454  73.532182  -9.225575  -8.980104  29.566696  -8.583037  24.962103  73.817201  69.972288  3.971491  -83.224411  67.400294  -94.220049  79.914049  11.30196  34.609094  -10.435429  0.931102  -4.784078  -7.819684  0.780355  -3.573314  
0.0  101.685394  0.0  4.498306  44.127955  -91.314331  -10.913691  -14.696204  -9.748967  -18.252212  14.796695  28.327581  0.300504  3.285708  0.981082  -37.957586  17.019333  -12.520047  -22.003514  14.491864  24.678549  13.521377  8.929023  -3.77579  -1.299664  -0.013796  1.746422  -3.551367  0.056121  4.772827  -3.551368  0.056121  4.772827  14.691456  24.12991  13.616016  156.605771  35.229935  -169.640624  -20.304832  -31.764616  119.056767  73.870816  -9.345486  -9.659472  29.748103  -8.56039  24.859441  74.582687  69.228412  3.530556  -84.282009  67.085186  -95.279417  79.851974  11.911536  34.011365  -10.249214  0.883548  -4.843729  -7.680332  0.744209  -3.619113  
0.0  101.685394  0.0  3.708818  42.829028  -91.838404  -9.114409  -14.855255  -9.656434  -18.551257  14.440615  28.776065  0.511194  3.321691  1.015322  -38.411232  16.062866  -13.406606  -20.292574  14.646005  25.688039  13.700674  9.275799  -3.709275  -1.246652  -0.087895  1.760394  -3.411924  -0.149343  4.814929  -3.411924  -0.149343  4.814929  14.920236  24.724386  13.433903  156.890271  35.907849  -168.895387  -19.888469  -32.485998  118.578747  74.183585  -9.49727  -10.148604  29.968357  -8.611251  24.801626  76.086631  68.256739  3.517751  -85.199325  66.603748  -96.219017  79.835809  12.702826  33.069991  -9.901758  0.889144  -4.894517  -7.419617  0.746459  -3.657546  
0.0  101.685394  0.0  3.009087  40.892371  -92.332178  -6.905311  -14.99386  -9.321751  -18.786154  14.010644  28.995704  0.713745  3.42717  1.123562  -38.850409  15.080499  -14.387298  -18.284444  14.722288  26.577193  14.055634  9.487836  -3.567299  -1.167976  -0.159327  1.771733  -3.202272  -0.349601  4.849293  -3.202272  -0.349602  4.849294  15.274021  25.199128  13.311147  157.488813  36.278018  -168.031147  -19.560679  -33.150966  118.183352  74.561961  -9.740025  -10.430007  30.260927  -8.725254  24.739653  78.369175  67.026701  3.981575  -85.98062  66.047498  -97.01758  79.833895  13.602148  31.907028  -9.327039  0.998212  -4.967339  -6.98754  0.82477  -3.711199  
0.0  101.685394  0.0  2.496948  38.247541  -92.824129  -4.481775  -15.094093  -8.647927  -18.84209  13.498708  29.021661  0.859032  3.571868  1.173516  -39.041184  14.213998  -15.360908  -16.114309  14.671891  27.296813  14.578853  9.639465  -3.334616  -1.068028  -0.223409  1.797318  -2.93415  -0.530812  4.921651  -2.93415  -0.530812  4.921651  15.744006  25.599682  13.166446  158.394264  36.259722  -167.166717  -19.387904  -33.811583  117.903404  75.048361  -10.087757  -10.585402  30.722763  -8.860477  24.691872  81.337902  65.465733  4.933148  -86.845031  65.469318  -97.834558  79.734443  14.478654  30.720827  -8.463382  1.256996  -5.051457  -6.337408  1.013019  -3.771889  
0.0  101.685394  0.0  2.111233  34.895261  -93.142363  -1.898691  -15.154968  -7.827374  -18.671292  12.920937  28.89244  0.957516  3.766884  1.216846  -38.838478  13.345547  -16.399349  -13.911906  14.509505  27.867639  15.134679  9.6703  -3.105567  -0.939314  -0.283553  1.802874  -2.587101  -0.704446  4.938307  -2.587101  -0.704446  4.938307  16.246124  25.850111  12.998542  159.651434  35.826193  -166.337389  -19.380211  -34.547294  117.817145  75.478677  -10.503321  -10.656369  31.220828  -8.992521  24.63464  85.034189  63.49446  6.370274  -87.925712  64.934465  -98.715939  79.471096  15.193221  29.730045  -7.374025  1.628316  -5.078638  -5.517068  1.282842  -3.789726  
0.0  101.685394  0.0  1.885818  30.750147  -93.36754  0.642118  -15.253066  -6.778381  -18.254641  12.527472  28.516127  1.494468  3.977395  1.376988  -37.999344  12.56614  -17.40403  -11.832019  14.293912  28.298058  15.747687  9.592237  -2.929958  -0.761798  -0.318216  1.787281  -2.104599  -0.812892  4.895049  -2.104599  -0.812892  4.895049  16.830853  25.951744  13.131764  161.333128  35.178032  -165.355722  -19.433574  -35.446344  117.883403  75.696976  -10.954173  -10.70215  31.703955  -9.16808  24.695248  89.272279  61.167989  8.054298  -89.278073  64.475638  -99.607559  79.1567  15.611313  29.095769  -6.081182  2.055622  -4.945496  -4.544112  1.591232  -3.688697  
0.0  101.685394  0.0  1.769872  25.938545  -93.54568  2.721975  -15.345606  -5.532682  -17.21825  12.266487  28.103773  2.496649  4.205362  1.597436  -36.637735  11.821661  -18.337452  -9.795491  14.041666  28.535085  16.344266  9.379135  -2.790645  -0.532903  -0.329079  1.749987  -1.479641  -0.860366  4.790649  -1.479641  -0.860366  4.790649  17.291522  25.778748  13.499904  163.271415  34.277699  -164.385766  -19.542378  -36.283248  118.051669  75.782668  -11.520633  -10.721158  31.974216  -9.354411  24.655707  93.746262  58.27412  9.637003  -90.719919  64.003654  -100.341592  78.878105  15.863093  28.692942  -4.636663  2.488769  -4.646749  -3.458255  1.902085  -3.465859  
0.0  101.685394  0.0  1.832256  20.589369  -93.610588  4.336163  -15.292711  -4.192625  -15.389567  12.00467  27.760311  3.660789  4.434777  1.841797  -34.837023  11.14621  -19.27655  -7.79345  13.666103  28.573258  16.956136  9.138515  -2.645627  -0.266041  -0.30883  1.676291  -0.74823  -0.825245  4.585526  -0.74823  -0.825245  4.585526  17.69276  25.32296  14.022368  165.226204  33.150135  -163.678579  -19.626466  -36.625913  118.285908  75.770078  -12.286872  -10.540271  31.869428  -9.646031  24.490139  98.398909  54.727692  11.1243  -92.008974  63.357008  -100.8706  78.502743  16.190086  28.320743  -3.054263  2.905505  -4.200829  -2.270347  2.200305  -3.135509  
